# xmcd
#
# Track frame offsets:
# 150
# 17235
# 40292
# 58691
# 77478
#
# Disc length: 1269 seconds
#
# Revision: 0
# Processed by: cddbd v1.5.2PL0 Copyright (c) Steve Scherf et al.
# Submitted via: Audion 3.0.2 (http://www.panic.com/audion/)
#
DISCID=3604f305
DTITLE=Hogzilla - Lost My Mind
DYEAR=1900
DGENRE=
TTITLE0=Don't Let Me Be
TTITLE1=Take That Ride
TTITLE2=Lost My Mind
TTITLE3=Hymn
TTITLE4=Gentrification of D.U.M.B.O.
EXTD=
EXTT0=
EXTT1=
EXTT2=
EXTT3=
EXTT4=
PLAYORDER=
